<svg width="64" height="65" viewBox="0 0 64 65" fill="none" xmlns="http://www.w3.org/2000/svg">
<rect y="0.819214" width="64" height="64" rx="20" fill="#DCEDF9"/>
<path d="M29.397 26.3758H23.9378L28.6399 21.5942C28.8587 21.3752 29.1152 21.1974 29.3969 21.0692L29.397 26.3758ZM41.602 22.592V43.0463C41.6033 43.5144 41.419 43.964 41.0894 44.2963C40.7596 44.6285 40.3116 44.8165 39.8435 44.8192H24.759C24.2909 44.8167 23.8427 44.6287 23.5129 44.2965C23.1833 43.964 22.9988 43.5146 23 43.0463V28.412C23 28.3457 23.014 28.2824 23.0189 28.217H30.3176V28.2168C30.5617 28.217 30.7958 28.12 30.9686 27.9472C31.1412 27.7746 31.2382 27.5404 31.2382 27.2963V20.8192H39.8436H39.8434C40.3115 20.8219 40.7594 21.0099 41.0892 21.3422C41.4188 21.6744 41.6031 22.124 41.6019 22.5921L41.602 22.592ZM33.0792 27.2963C33.079 27.5404 33.176 27.7747 33.3486 27.9473C33.5214 28.1201 33.7555 28.2171 33.9998 28.2169H36.7615C37.0903 28.2169 37.3941 28.0414 37.5585 27.7566C37.7231 27.4718 37.7231 27.1208 37.5585 26.836C37.3941 26.5512 37.0902 26.3758 36.7615 26.3758H33.9998C33.7555 26.3758 33.5214 26.4728 33.3486 26.6454C33.176 26.818 33.079 27.0522 33.0792 27.2963ZM37.7018 38.3935C37.7032 38.1494 37.6077 37.9146 37.4361 37.7409C37.2643 37.5673 37.0307 37.4691 36.7865 37.4676L27.5609 37.4154C27.3148 37.4074 27.0762 37.5009 26.9011 37.6739C26.7261 37.847 26.6297 38.0845 26.635 38.3306C26.6334 38.5748 26.7292 38.8096 26.9007 38.9832C27.0723 39.1569 27.3059 39.2553 27.5501 39.2565L36.7757 39.3087H36.7812C37.0243 39.3087 37.2577 39.2124 37.4301 39.041C37.6027 38.8696 37.7003 38.6368 37.7018 38.3935L37.7018 38.3935ZM37.7018 32.8702C37.7032 32.6261 37.6077 32.3912 37.4361 32.2176C37.2643 32.0439 37.0307 31.9457 36.7865 31.9443L27.5609 31.8921H27.5556C27.2266 31.8913 26.9223 32.0657 26.7569 32.3501C26.5917 32.6345 26.5906 32.9852 26.7542 33.2707C26.9178 33.5559 27.2213 33.7324 27.55 33.7332L36.7756 33.7854H36.7812C37.0243 33.7854 37.2577 33.689 37.4301 33.5177C37.6027 33.3463 37.7003 33.1135 37.7017 32.8702L37.7018 32.8702Z" fill="#1C6BA4"/>
</svg>
