<svg width="136" height="82" viewBox="0 0 136 82" fill="none" xmlns="http://www.w3.org/2000/svg">
<path d="M55.7553 0.0366173C52.1094 0.317562 48.9807 2.22671 46.8098 5.4831C45.7371 7.09854 45.156 9.49295 45.1624 12.2641C45.1688 14.4286 45.4689 16.3569 46.1266 18.3427C46.8034 20.4051 48.157 22.3334 51.3176 25.743C52.9203 27.467 56.5853 30.9533 59.2543 33.2774C64.1006 37.5044 66.0417 39.2283 66.744 39.9115L67.5869 40.7416L68.468 39.8796C68.9469 39.4071 70.2048 38.2642 71.2519 37.3447L73.1611 35.6718L73.9975 36.4508C74.4572 36.8786 75.2681 37.6001 75.7917 38.0599C77.056 39.1453 77.8669 39.8732 78.3904 40.384L78.8246 40.7991L79.3482 40.2883C79.6419 40.0073 80.3379 39.3752 80.8998 38.8899C84.1881 36.0294 85.7972 34.4395 86.7613 33.0923C87.4254 32.1664 87.7063 31.3427 87.8404 29.938C88.0128 28.1438 87.6041 26.7966 86.5698 25.743C86.1803 25.3408 85.3949 24.7916 85.1203 24.7214C85.0309 24.7022 84.9543 24.6512 84.9543 24.6192C84.9543 24.5873 85.248 24.217 85.6056 23.8083C87.1763 21.9822 88.3895 20.1497 88.8748 18.8599C89.4558 17.3275 89.8772 15.2651 90.0049 13.3495C90.0369 12.8579 90.0752 12.2705 90.0943 12.0406C90.1199 11.7469 90.1135 11.6511 90.0688 11.7213C90.0177 11.7916 89.9986 11.6958 89.9986 11.3702C89.9986 10.0038 89.558 7.94137 88.9833 6.61327C88.5555 5.62358 87.4828 4.15501 86.4995 3.2164C84.501 1.31364 82.0555 0.234558 79.2652 0.0366173C75.9705 -0.199631 72.9312 0.911377 70.2686 3.31856C69.4449 4.06561 68.5191 5.15747 67.9125 6.10246C67.7656 6.33232 67.6188 6.51749 67.5932 6.51749C67.5613 6.51749 67.3634 6.2557 67.1527 5.94283C66.661 5.21493 65.7799 4.16139 65.1605 3.56758C62.4532 0.975227 59.2415 -0.231556 55.7553 0.0366173ZM60.7484 5.43841C62.0063 5.68743 63.3152 6.26209 64.4135 7.04107C65.3968 7.74343 66.9164 9.37802 67.5294 10.3805C67.5805 10.4635 67.5932 10.4635 67.6443 10.3805C68.2573 9.37802 69.7897 7.73705 70.7603 7.04107C72.6183 5.71936 74.8531 5.09362 77.024 5.27878C79.3674 5.48311 81.2254 6.33871 82.8792 7.98606C84.6415 9.74835 85.3374 11.351 85.5418 14.1413C85.6567 15.7503 85.4971 17.3658 85.0501 19.1281C84.7181 20.4498 84.3797 21.1968 83.6007 22.3334C83.0196 23.189 81.9022 24.5554 81.7937 24.5554C81.6085 24.5554 80.5486 25.1492 80.1527 25.4748C79.7249 25.8324 79.1886 26.4262 78.9779 26.7838C78.914 26.8923 78.8438 26.9817 78.8246 26.9817C78.8055 26.9817 78.6778 26.8029 78.5373 26.5922C78.3968 26.3815 78.0648 25.9984 77.7966 25.7494C76.6665 24.6831 75.332 24.2106 73.9145 24.3702C72.4395 24.5362 71.2838 25.2641 70.4282 26.5539C69.8216 27.467 69.6109 29.0697 69.8855 30.5957C70.1217 31.8982 70.3771 32.4601 71.2519 33.5775L71.718 34.1777L70.2367 35.4675C69.4258 36.1699 68.4935 37.0191 68.1743 37.3447L67.5932 37.9449L66.8398 37.2043C66.4248 36.7956 65.3265 35.7995 64.3943 34.995C59.9694 31.1512 57.5048 28.8973 55.519 26.8796C52.9011 24.2234 51.5539 22.5505 50.7685 20.9989C50.494 20.4434 50.3279 19.9709 50.0981 19.0131C49.6064 17.0274 49.4723 15.2778 49.6767 13.5411C49.964 11.0828 50.6472 9.63342 52.2946 7.98606C54.5677 5.71936 57.575 4.81267 60.7484 5.43841ZM79.8462 30.3339V31.6428H81.1552H82.4641V32.6325V33.6222H81.1552H79.8462V34.9312V36.2401H78.8246H77.803V34.9312V33.6222H76.4941H75.1851V32.6325V31.6428H76.4941H77.803V30.3339V29.025H78.8246H79.8462V30.3339Z" fill="white"/>
<path d="M22.8894 71.3375H16.4492V61.6691H9.00328V71.3375H2.5631V47.6208H9.00328V56.4132H16.4492V47.6208H22.8894V71.3375ZM34.9353 52.6334C36.7198 52.6334 38.2609 52.947 39.5586 53.5743C40.8564 54.1907 41.8568 55.1208 42.5597 56.3645C43.2627 57.6082 43.6142 59.1655 43.6142 61.0365V63.8591H32.2749C32.329 64.8216 32.6859 65.6111 33.3456 66.2276C34.0161 66.844 35.0002 67.1522 36.298 67.1522C37.4444 67.1522 38.4934 67.0387 39.4451 66.8115C40.4076 66.5844 41.3972 66.233 42.4137 65.7571V70.3155C41.5269 70.7806 40.559 71.1212 39.51 71.3375C38.4609 71.5538 37.1361 71.662 35.5356 71.662C33.6862 71.662 32.0316 71.3321 30.5716 70.6724C29.1116 70.0127 27.9598 68.9907 27.1163 67.6064C26.2835 66.2221 25.8672 64.4431 25.8672 62.2694C25.8672 60.0631 26.2457 58.2517 27.0027 56.8349C27.7597 55.4074 28.8196 54.3529 30.1823 53.6716C31.5449 52.9795 33.1293 52.6334 34.9353 52.6334ZM35.1624 56.9485C34.4162 56.9485 33.789 57.1864 33.2807 57.6623C32.7832 58.1273 32.4912 58.8627 32.4047 59.8685H37.8553C37.8445 59.3277 37.7364 58.8357 37.5309 58.3923C37.3254 57.9489 37.0226 57.5974 36.6224 57.3378C36.2331 57.0783 35.7464 56.9485 35.1624 56.9485ZM55.1734 52.6334C57.4986 52.6334 59.3155 53.212 60.6241 54.3692C61.9326 55.5155 62.5869 57.154 62.5869 59.2845V71.3375H58.1907L56.9741 68.9042H56.8443C56.3252 69.5531 55.7899 70.083 55.2383 70.494C54.6976 70.8941 54.0757 71.1861 53.3728 71.37C52.6698 71.5646 51.81 71.662 50.7934 71.662C49.7336 71.662 48.7819 71.4457 47.9384 71.0131C47.0948 70.5805 46.4297 69.9262 45.943 69.0502C45.4564 68.1742 45.213 67.0657 45.213 65.7247C45.213 63.7564 45.8944 62.2964 47.257 61.3447C48.6197 60.393 50.5934 59.8577 53.1781 59.7387L56.2441 59.6414V59.3818C56.2441 58.5599 56.0386 57.9759 55.6276 57.6298C55.2275 57.2837 54.6868 57.1107 54.0054 57.1107C53.2808 57.1107 52.4697 57.2405 51.5721 57.5C50.6853 57.7488 49.7931 58.0732 48.8955 58.4734L47.0624 54.2881C48.1222 53.7473 49.3226 53.3364 50.6637 53.0552C52.0047 52.774 53.508 52.6334 55.1734 52.6334ZM56.2765 63.1291L54.8165 63.194C53.6485 63.2373 52.8266 63.4428 52.3508 63.8105C51.8857 64.1673 51.6532 64.681 51.6532 65.3516C51.6532 65.9788 51.8209 66.4438 52.1561 66.7467C52.4914 67.0387 52.9348 67.1847 53.4863 67.1847C54.2542 67.1847 54.9085 66.9413 55.4492 66.4547C56.0008 65.968 56.2765 65.3353 56.2765 64.5567V63.1291ZM66.2784 71.3375V47.6208H72.6862V66.1627H81.8193V71.3375H66.2784ZM90.6207 52.9578V71.3375H84.2779V52.9578H90.6207ZM87.4736 45.5606C88.3821 45.5606 89.1716 45.7498 89.8421 46.1283C90.5234 46.5068 90.8641 47.2585 90.8641 48.3832C90.8641 49.4755 90.5234 50.2163 89.8421 50.6056C89.1716 50.9842 88.3821 51.1734 87.4736 51.1734C86.5436 51.1734 85.7487 50.9842 85.089 50.6056C84.4401 50.2163 84.1157 49.4755 84.1157 48.3832C84.1157 47.2585 84.4401 46.5068 85.089 46.1283C85.7487 45.7498 86.5436 45.5606 87.4736 45.5606ZM105.554 52.6334C107.447 52.6334 108.993 53.1687 110.194 54.2394C111.394 55.3101 111.994 57.0242 111.994 59.3818V71.3375H105.652V61.3122C105.652 60.0902 105.473 59.1709 105.116 58.5545C104.77 57.9272 104.208 57.6136 103.429 57.6136C102.229 57.6136 101.423 58.1057 101.012 59.0898C100.601 60.0631 100.396 61.4637 100.396 63.2913V71.3375H94.0527V52.9578H98.8382L99.698 55.3912H99.9413C100.331 54.8072 100.796 54.3097 101.336 53.8987C101.877 53.4878 102.499 53.1741 103.202 52.9578C103.905 52.7416 104.689 52.6334 105.554 52.6334ZM121.688 46.0959V56.0238C121.688 56.77 121.656 57.6028 121.591 58.522C121.537 59.4305 121.45 60.2578 121.331 61.004H121.461C121.71 60.6255 122.023 60.1497 122.402 59.5765C122.78 59.0033 123.121 58.5274 123.424 58.1489L127.544 52.9578H134.617L128.242 60.7769L135.023 71.3375H127.771L123.748 64.7513L121.688 66.3249V71.3375H115.313V46.0959H121.688Z" fill="white"/>
</svg>
