<svg width="20" height="20" viewBox="0 0 20 20" fill="none" xmlns="http://www.w3.org/2000/svg">
<path d="M9.59794 0.214966C4.30689 0.214966 0 4.52186 0 9.81291C0 15.104 4.30689 19.4108 9.59794 19.4108C14.889 19.4108 19.1959 15.104 19.1959 9.81291C19.1959 4.52186 14.889 0.214966 9.59794 0.214966ZM9.59794 2.61445C13.5955 2.61445 16.7964 5.81533 16.7964 9.81291C16.7964 13.8105 13.5955 17.0114 9.59794 17.0114C5.60036 17.0114 2.39949 13.8105 2.39949 9.81291C2.39949 5.81533 5.60036 2.61445 9.59794 2.61445ZM9.59794 4.86397C8.85279 4.86397 8.24823 5.46853 8.24823 6.21368C8.24823 6.95883 8.85279 7.56339 9.59794 7.56339C10.3431 7.56339 10.9477 6.95883 10.9477 6.21368C10.9477 5.46853 10.3431 4.86397 9.59794 4.86397ZM7.77021 8.61316C7.45153 8.62722 7.19846 8.88967 7.19846 9.21304C7.19846 9.54578 7.46559 9.81291 7.79833 9.81291H8.3982V13.4121H7.79833C7.46559 13.4121 7.19846 13.6793 7.19846 14.012C7.19846 14.3447 7.46559 14.6119 7.79833 14.6119H11.3976C11.7303 14.6119 11.9974 14.3447 11.9974 14.012C11.9974 13.6793 11.7303 13.4121 11.3976 13.4121H10.7977V8.61316H7.79833C7.78896 8.61316 7.77958 8.61316 7.77021 8.61316Z" fill="#2678CC"/>
</svg>
