<svg width="30" height="30" viewBox="0 0 30 30" fill="none" xmlns="http://www.w3.org/2000/svg">
<path d="M12.5001 23.7499C12.208 23.7505 11.925 23.6488 11.7001 23.4624C11.5735 23.3575 11.4689 23.2286 11.3922 23.0832C11.3155 22.9377 11.2683 22.7786 11.2532 22.6149C11.2381 22.4512 11.2554 22.2861 11.3042 22.1291C11.353 21.9721 11.4323 21.8262 11.5376 21.6999L17.1376 14.9999L11.7376 8.28743C11.6338 8.15957 11.5562 8.01245 11.5094 7.85452C11.4626 7.6966 11.4475 7.53098 11.4649 7.3672C11.4824 7.20341 11.532 7.04469 11.611 6.90014C11.6899 6.75559 11.7967 6.62808 11.9251 6.52493C12.0544 6.41113 12.2059 6.3253 12.37 6.27281C12.534 6.22032 12.7072 6.20232 12.8786 6.21992C13.0499 6.23753 13.2158 6.29037 13.3658 6.37512C13.5158 6.45987 13.6466 6.57471 13.7501 6.71243L19.7876 14.2124C19.9714 14.4361 20.0719 14.7166 20.0719 15.0062C20.0719 15.2957 19.9714 15.5763 19.7876 15.7999L13.5376 23.2999C13.4122 23.4512 13.2529 23.5708 13.0726 23.649C12.8924 23.7271 12.6962 23.7617 12.5001 23.7499Z" fill="#2678CC"/>
</svg>
