<svg width="15" height="20" viewBox="0 0 15 20" fill="none" xmlns="http://www.w3.org/2000/svg">
<path d="M7.39385 0.333374C7.39385 0.333374 0 9.56586 0 13.2383C0 16.9107 3.35009 19.8889 7.48198 19.8889C11.6139 19.8891 14.964 16.9113 14.964 13.2383C14.964 9.56529 7.39332 0.333374 7.39332 0.333374H7.39385ZM4.79408 18.0235C4.70678 18.1272 4.5726 18.1824 4.43697 18.1824C4.34385 18.1824 4.24991 18.1567 4.17007 18.1033C2.28659 16.8494 1.46805 14.5433 1.43429 14.4458C1.3617 14.2367 1.49339 14.015 1.72836 13.9503C1.96498 13.8846 2.21322 14.0026 2.28644 14.2113C2.2939 14.233 3.05667 16.3712 4.70495 17.4688C4.90176 17.5998 4.94199 17.8481 4.79413 18.0234L4.79408 18.0235ZM6.48946 18.8873C6.47909 18.8873 6.46893 18.8871 6.45856 18.8866C6.11492 18.8654 5.77503 18.8056 5.44842 18.7085C5.21511 18.639 5.08902 18.4143 5.1672 18.2069C5.24601 17.9991 5.4986 17.888 5.73171 17.9569C5.98658 18.0327 6.25162 18.0795 6.51956 18.0959C6.76511 18.111 6.95071 18.3002 6.93392 18.5184C6.91795 18.7273 6.72156 18.8873 6.48949 18.8873L6.48946 18.8873Z" fill="#D75B5B"/>
</svg>
