<svg width="20" height="20" viewBox="0 0 20 20" fill="none" xmlns="http://www.w3.org/2000/svg">
<path d="M1.06644 19.4106H18.1294C18.4123 19.4106 18.6835 19.3187 18.8835 19.155C19.0835 18.9914 19.1959 18.7695 19.1959 18.5381V4.57742C19.1958 4.34603 19.0834 4.12413 18.8834 3.96054L14.6177 0.470376C14.4177 0.306732 14.1465 0.214771 13.8637 0.214722H1.06644C0.783601 0.214722 0.512348 0.30665 0.312352 0.470283C0.112356 0.633916 0 0.85585 0 1.08726V18.5381C0 18.7695 0.112356 18.9914 0.312352 19.155C0.512348 19.3187 0.783601 19.4106 1.06644 19.4106ZM2.13288 1.9598H13.4222L17.063 4.93865V17.6655H2.13288V1.9598ZM10.6644 13.3028V14.1754C10.6644 14.4068 10.552 14.6287 10.352 14.7923C10.152 14.956 9.88078 15.0479 9.59794 15.0479C9.3151 15.0479 9.04385 14.956 8.84386 14.7923C8.64386 14.6287 8.5315 14.4068 8.5315 14.1754V13.3028C8.5315 13.0714 8.64386 12.8495 8.84386 12.6858C9.04385 12.5222 9.3151 12.4303 9.59794 12.4303C9.88078 12.4303 10.152 12.5222 10.352 12.6858C10.552 12.8495 10.6644 13.0714 10.6644 13.3028ZM12.7482 6.82072C12.8815 7.42102 12.7662 8.04055 12.4207 8.58122C12.0751 9.12188 11.519 9.55278 10.8403 9.80568C10.7804 9.84096 10.7326 9.88838 10.7018 9.94329C10.6709 9.9982 10.6581 10.0587 10.6644 10.1189V10.6852C10.6644 10.9166 10.552 11.1385 10.352 11.3022C10.152 11.4658 9.88078 11.5577 9.59794 11.5577C9.3151 11.5577 9.04385 11.4658 8.84386 11.3022C8.64386 11.1385 8.5315 10.9166 8.5315 10.6852V10.1189C8.52067 9.71919 8.65236 9.32553 8.91049 8.98604C9.16862 8.64654 9.54202 8.3759 9.98506 8.20719C10.2284 8.10974 10.4253 7.94882 10.5446 7.74979C10.6639 7.55075 10.6989 7.3249 10.6441 7.10779C10.6108 6.92506 10.512 6.75454 10.3601 6.61784C10.2082 6.48114 10.0101 6.38442 9.79097 6.33995C9.64604 6.31603 9.49638 6.31931 9.35322 6.34954C9.21007 6.37976 9.07716 6.43615 8.96448 6.51446C8.82703 6.61154 8.71751 6.73228 8.64376 6.86804C8.57001 7.0038 8.53386 7.15122 8.5379 7.29975C8.5379 7.53116 8.42555 7.75309 8.22555 7.91673C8.02555 8.08036 7.7543 8.17229 7.47146 8.17229C7.18863 8.17229 6.91737 8.08036 6.71738 7.91673C6.51738 7.75309 6.40503 7.53116 6.40503 7.29975C6.40174 6.89491 6.50776 6.49448 6.71552 6.12705C6.92329 5.75963 7.22766 5.43428 7.6069 5.17424C7.96104 4.93329 8.3756 4.759 8.82121 4.6637C9.26683 4.56841 9.7326 4.55444 10.1855 4.62279C10.8335 4.73549 11.4248 5.00558 11.882 5.39775C12.3392 5.78991 12.6411 6.28587 12.7482 6.82072Z" fill="#2678CC"/>
</svg>
