<svg width="20" height="20" viewBox="0 0 20 20" fill="none" xmlns="http://www.w3.org/2000/svg">
<path d="M17.5962 9.81298C17.5962 8.76263 17.3893 7.72257 16.9874 6.75217C16.5854 5.78177 15.9963 4.90005 15.2536 4.15734C14.5109 3.41463 13.6291 2.82548 12.6588 2.42353C11.6884 2.02158 10.6483 1.8147 9.59794 1.8147C7.47666 1.8147 5.44227 2.65737 3.9423 4.15734C2.44233 5.65731 1.59966 7.69171 1.59966 9.81298C1.59966 11.9343 2.44233 13.9687 3.9423 15.4686C5.44227 16.9686 7.47666 17.8113 9.59794 17.8113C11.7192 17.8113 13.7536 16.9686 15.2536 15.4686C16.7536 13.9687 17.5962 11.9343 17.5962 9.81298ZM15.9406 9.01315H13.5971C13.4652 7.13207 12.8207 5.32303 11.7335 3.78228C12.8504 4.17896 13.8352 4.8781 14.5781 5.80172C15.3209 6.72534 15.7926 7.83714 15.9406 9.01315ZM7.26244 10.6128H11.9974C11.7927 12.5889 10.9505 14.4446 9.59794 15.8997C8.24629 14.4507 7.42336 12.5878 7.26244 10.6128ZM7.26244 9.01315C7.44871 7.04704 8.2683 5.19455 9.59794 3.73429C10.9614 5.17887 11.8056 7.03601 11.9974 9.01315H7.26244ZM7.55038 3.75828C6.45745 5.30757 5.80259 7.12294 5.65479 9.01315H3.2553C3.40639 7.82261 3.88925 6.69855 4.64873 5.76935C5.40822 4.84015 6.41371 4.14326 7.55038 3.75828ZM3.2553 10.6128H5.65479C5.78651 12.5014 6.43692 14.317 7.53438 15.8597C6.4018 15.4728 5.40043 14.7761 4.64402 13.8486C3.8876 12.9211 3.40648 11.8001 3.2553 10.6128ZM11.6935 15.8517C12.788 14.3086 13.4456 12.4986 13.5971 10.6128H15.9566C15.8053 11.7968 15.3259 12.9148 14.5726 13.8406C13.8192 14.7663 12.822 15.463 11.6935 15.8517Z" fill="#2678CC"/>
</svg>
