<svg width="90" height="90" viewBox="0 0 90 90" fill="none" xmlns="http://www.w3.org/2000/svg">
<rect width="90" height="90" rx="25" fill="#D6E3F5"/>
<path d="M49.2157 30.6945L47.3508 27.9535L45.5073 32.0334C45.4041 32.2649 45.2051 32.4022 44.9786 32.4022L44.9763 32.4025C44.7497 32.4025 44.551 32.2666 44.4476 32.0363L43.1426 29.1948L42.361 30.6395C42.2162 30.91 41.9016 31.0974 41.5945 31.0974H38.2686C38.0056 31.0974 37.7941 31.3101 37.7941 31.5719C37.7941 31.8338 38.0056 32.0476 38.2686 32.0476H41.4047C42.3361 33.0983 43.7178 34.0499 45.6909 34.7307C48.2468 33.8497 49.8174 32.5195 50.6856 31.0975H49.977C49.6903 31.0998 49.3757 30.9338 49.2157 30.6945L49.2157 30.6945Z" fill="#3876CC"/>
<path d="M53.7001 29.2118H51.4461C51.9382 26.8926 50.9 24.733 49.4818 24.2258C46.936 23.3159 45.6913 25.6178 45.6913 25.6178C45.6913 25.6178 44.4479 23.3159 41.9008 24.2258C40.2914 24.8008 39.1726 27.5015 40.2169 30.1492H41.5472L42.6459 28.1156C42.7618 27.9004 42.9631 27.7747 43.187 27.7822C43.4109 27.7897 43.6047 27.9271 43.7082 28.151L44.974 30.9096L46.7385 27.0073C46.8341 26.7932 47.0215 26.6536 47.2368 26.6348C47.4558 26.6122 47.662 26.7217 47.7918 26.9166L49.9992 30.1608H53.699C53.9595 30.1608 54.1735 29.9467 54.1735 29.6851C54.1732 29.4233 53.9606 29.2118 53.7002 29.2118L53.7001 29.2118Z" fill="#3876CC"/>
<path d="M58.4758 17.1447H53.1473L53.1476 16.1189C53.1476 15.3234 52.5008 14.678 51.7053 14.678H50.4571C49.5825 13.1099 47.9088 12.048 45.9858 12.048C44.0618 12.048 42.3879 13.1102 41.512 14.678H40.2637C39.4671 14.678 38.8214 15.3237 38.8214 16.1189V17.1432L33.4907 17.1435C32.0408 17.1435 30.8606 18.3239 30.8606 19.7735L30.8604 49.6891C30.8604 51.139 32.0408 52.3192 33.4904 52.3192H58.4759C59.9258 52.3192 61.106 51.1387 61.106 49.6891L61.1063 19.7743C61.1063 18.3236 59.9258 17.1442 58.4759 17.1442L58.4758 17.1447ZM33.491 49.6892V19.7743H38.8194V21.2103C38.8194 22.0069 39.4663 22.6512 40.2617 22.6512H51.7037C52.5003 22.6512 53.146 22.0069 53.146 21.2103L53.1454 19.7743H58.4739L58.4765 49.6892H33.491Z" fill="#3876CC"/>
<path d="M47.8917 38.7192C47.8917 38.8739 47.766 38.9999 47.611 38.9999L37.1235 38.9997C36.9688 38.9997 36.8428 38.8739 36.8428 38.719V37.5976C36.8428 37.4429 36.9685 37.3169 37.1235 37.3169H47.6117C47.7664 37.3169 47.8924 37.4426 47.8924 37.5976L47.8917 38.7192Z" fill="#3876CC"/>
<path d="M52.3749 39.9069C52.0704 39.9069 51.7871 39.7621 51.5933 39.5069L49.4111 36.6466L50.613 35.7292L52.3233 37.9716L55.1184 33.3833L56.4084 34.1697L53.2106 39.4237C53.033 39.7131 52.7488 39.8892 52.4241 39.9069C52.4065 39.9055 52.3926 39.9069 52.3749 39.9069L52.3749 39.9069Z" fill="#3876CC"/>
<path d="M47.8917 46.281C47.8917 46.4357 47.766 46.5603 47.611 46.5603L37.1235 46.5606C36.9688 46.5606 36.8428 46.436 36.8428 46.2813V45.1588C36.8428 45.0041 36.9685 44.8781 37.1235 44.8781H47.6117C47.7664 44.8781 47.8924 45.0038 47.8924 45.1588L47.8917 46.281Z" fill="#3876CC"/>
<path d="M52.3749 47.4683C52.0704 47.4683 51.7871 47.3235 51.5933 47.0683L49.4111 44.208L50.613 43.2906L52.3233 45.5319L55.1184 40.9436L56.4084 41.7301L53.2106 46.9855C53.033 47.2737 52.7488 47.451 52.4241 47.4687C52.4065 47.4684 52.3926 47.4684 52.3749 47.4684L52.3749 47.4683Z" fill="#3876CC"/>
<path d="M14.0586 74.9739V61.6462H16.4784V67.2041H23.3407V61.6462H25.7605V74.9739H23.3407V69.2269H16.4784V74.9739H14.0586ZM28.6801 63.7446V61.4383H31.3267V63.7446H28.6801ZM28.8313 74.9739V65.7296H31.1944V74.9739H28.8313ZM37.4117 75.1629C36.6303 75.1629 35.8994 75.0684 35.2188 74.8794C34.5382 74.6903 33.9711 74.4193 33.5174 74.0665L34.1223 72.5163C34.5887 72.8314 35.1117 73.0771 35.6914 73.2536C36.2712 73.4174 36.8509 73.4993 37.4306 73.4993C38.0356 73.4993 38.483 73.3985 38.7729 73.1969C39.0753 72.9826 39.2266 72.7053 39.2266 72.3651C39.2266 71.8357 38.8359 71.4954 38.0545 71.3442L36.164 70.985C34.5635 70.6826 33.7632 69.8508 33.7632 68.4896C33.7632 67.8847 33.927 67.3617 34.2547 66.9206C34.595 66.4795 35.0613 66.1392 35.6536 65.8997C36.246 65.6603 36.9265 65.5405 37.6953 65.5405C38.3507 65.5405 38.9808 65.6351 39.5857 65.8241C40.1907 66.0005 40.7074 66.2715 41.1359 66.637L40.4932 68.1872C40.1277 67.8847 39.6866 67.6452 39.1698 67.4688C38.6657 67.2923 38.1805 67.2041 37.7142 67.2041C37.0967 67.2041 36.6366 67.3113 36.3342 67.5255C36.0443 67.7398 35.8994 68.0233 35.8994 68.3762C35.8994 68.9307 36.2586 69.271 36.9769 69.397L38.8674 69.7562C39.6866 69.9075 40.3041 70.1847 40.72 70.588C41.1485 70.9913 41.3628 71.5333 41.3628 72.2138C41.3628 73.1338 41.0036 73.8585 40.2852 74.3878C39.5668 74.9046 38.609 75.1629 37.4117 75.1629ZM47.7789 75.1629C45.3339 75.1629 44.1115 73.953 44.1115 71.5333V67.5066H42.3344V65.7296H44.1115V62.9695H46.4745V65.7296H49.2724V67.5066H46.4745V71.4009C46.4745 72.0059 46.6068 72.4596 46.8715 72.7621C47.1362 73.0645 47.5647 73.2158 48.157 73.2158C48.3335 73.2158 48.5162 73.1969 48.7052 73.159C48.8943 73.1086 49.0896 73.0582 49.2913 73.0078L49.6505 74.747C49.4236 74.8731 49.1338 74.9739 48.7809 75.0495C48.4406 75.1251 48.1066 75.1629 47.7789 75.1629ZM55.3011 75.1629C54.3433 75.1629 53.5115 74.9676 52.8058 74.5769C52.1 74.1862 51.5518 73.6317 51.1611 72.9133C50.7704 72.1823 50.575 71.3253 50.575 70.3423C50.575 69.3592 50.7704 68.5085 51.1611 67.7902C51.5518 67.0718 52.1 66.5173 52.8058 66.1266C53.5115 65.7359 54.3433 65.5405 55.3011 65.5405C56.259 65.5405 57.0908 65.7359 57.7965 66.1266C58.5023 66.5173 59.0505 67.0718 59.4412 67.7902C59.8319 68.5085 60.0273 69.3592 60.0273 70.3423C60.0273 71.3253 59.8319 72.1823 59.4412 72.9133C59.0505 73.6317 58.5023 74.1862 57.7965 74.5769C57.0908 74.9676 56.259 75.1629 55.3011 75.1629ZM55.3011 73.367C56.0069 73.367 56.5741 73.1149 57.0026 72.6108C57.4311 72.0941 57.6453 71.3379 57.6453 70.3423C57.6453 69.334 57.4311 68.5842 57.0026 68.0926C56.5741 67.5885 56.0069 67.3365 55.3011 67.3365C54.5954 67.3365 54.0282 67.5885 53.5997 68.0926C53.1712 68.5842 52.957 69.334 52.957 70.3423C52.957 71.3379 53.1712 72.0941 53.5997 72.6108C54.0282 73.1149 54.5954 73.367 55.3011 73.367ZM62.3558 74.9739V65.7296H64.6621V67.3554C65.1158 66.2589 66.0863 65.654 67.5734 65.5405L68.2918 65.4838L68.443 67.4877L67.0819 67.62C65.5317 67.7713 64.7566 68.5653 64.7566 70.002V74.9739H62.3558ZM71.541 78.3767L73.2424 74.5958L69.4048 65.7296H71.9191L74.509 72.1949L77.1556 65.7296H79.5376L73.9797 78.3767H71.541Z" fill="#3876CC"/>
</svg>
