<svg width="57" height="56" viewBox="0 0 57 56" fill="none" xmlns="http://www.w3.org/2000/svg">
<rect width="56.7273" height="56" rx="20" fill="#DCEDF9"/>
<path d="M24.515 27.4451V24.9561H21.895V27.4451H24.515Z" fill="#1C6BA4"/>
<path d="M24.515 28.6895V31.1785H21.895V28.6895H24.515Z" fill="#1C6BA4"/>
<path d="M29.755 27.4451V24.9561H27.135V27.4451H29.755Z" fill="#1C6BA4"/>
<path d="M29.755 28.6895V31.1785H27.135V28.6895H29.755Z" fill="#1C6BA4"/>
<path d="M34.995 27.4451V24.9561H32.375V27.4451H34.995Z" fill="#1C6BA4"/>
<path d="M34.995 28.6895V31.1785H32.375V28.6895H34.995Z" fill="#1C6BA4"/>
<path fill-rule="evenodd" clip-rule="evenodd" d="M25.825 15H31.065C32.1503 15 33.03 15.8358 33.03 16.8667V21.2225H36.305C37.3903 21.2225 38.27 22.0582 38.27 23.0892V38.6455H40.89V39.89H16V38.6455H18.62V23.0892C18.62 22.0582 19.4997 21.2225 20.585 21.2225H23.86V16.8667C23.86 15.8358 24.7397 15 25.825 15ZM19.93 38.6455H25.825V34.912C25.825 33.5374 26.998 32.423 28.445 32.423C29.892 32.423 31.065 33.5374 31.065 34.912V38.6455H36.96V23.0892C36.96 22.7456 36.6668 22.467 36.305 22.467H32.9182C32.6485 23.192 31.9206 23.7115 31.065 23.7115H25.825C24.9694 23.7115 24.2415 23.192 23.9718 22.467H20.585C20.2232 22.467 19.93 22.7456 19.93 23.0892V38.6455ZM29.1 17.489C29.1 17.1453 28.8068 16.8667 28.445 16.8667C28.0832 16.8667 27.79 17.1453 27.79 17.489V18.7335H26.48C26.1182 18.7335 25.825 19.0121 25.825 19.3557C25.825 19.6994 26.1182 19.978 26.48 19.978H27.79V21.2225C27.79 21.5662 28.0832 21.8447 28.445 21.8447C28.8068 21.8447 29.1 21.5662 29.1 21.2225V19.978H30.41C30.7718 19.978 31.065 19.6994 31.065 19.3557C31.065 19.0121 30.7718 18.7335 30.41 18.7335H29.1V17.489Z" fill="#1C6BA4"/>
</svg>
