<svg width="20" height="20" viewBox="0 0 20 20" fill="none" xmlns="http://www.w3.org/2000/svg">
<path d="M0 2.9835C0 2.34711 0.202244 1.73678 0.56224 1.28678C0.922237 0.836789 1.4105 0.583984 1.91961 0.583984H10.5578C11.067 0.583984 11.5552 0.836789 11.9152 1.28678C12.2752 1.73678 12.4775 2.34711 12.4775 2.9835V5.38301C12.4775 5.7012 12.3763 6.00636 12.1963 6.23136C12.0163 6.45636 11.7722 6.58276 11.5177 6.58276C11.2631 6.58276 11.019 6.45636 10.839 6.23136C10.659 6.00636 10.5578 5.7012 10.5578 5.38301V2.9835H1.91961V17.3806H10.5578V14.9811C10.5578 14.6629 10.659 14.3577 10.839 14.1327C11.019 13.9077 11.2631 13.7813 11.5177 13.7813C11.7722 13.7813 12.0163 13.9077 12.1963 14.1327C12.3763 14.3577 12.4775 14.6629 12.4775 14.9811V17.3806C12.4775 18.017 12.2752 18.6273 11.9152 19.0773C11.5552 19.5273 11.067 19.7801 10.5578 19.7801H1.91961C1.4105 19.7801 0.922237 19.5273 0.56224 19.0773C0.202244 18.6273 0 18.017 0 17.3806V2.9835ZM14.6783 5.73454C14.8583 5.50962 15.1024 5.38326 15.3569 5.38326C15.6114 5.38326 15.8555 5.50962 16.0355 5.73454L18.9149 9.3338C19.0948 9.55879 19.1959 9.8639 19.1959 10.182C19.1959 10.5002 19.0948 10.8053 18.9149 11.0303L16.0355 14.6295C15.8544 14.8481 15.612 14.969 15.3603 14.9663C15.1087 14.9635 14.8679 14.8374 14.69 14.6149C14.512 14.3925 14.4111 14.0915 14.4089 13.777C14.4067 13.4624 14.5035 13.1593 14.6783 12.9331L15.9193 11.3818H6.71863C6.46407 11.3818 6.21995 11.2554 6.03995 11.0304C5.85995 10.8054 5.75883 10.5002 5.75883 10.182C5.75883 9.86383 5.85995 9.55867 6.03995 9.33367C6.21995 9.10868 6.46407 8.98227 6.71863 8.98227H15.9193L14.6783 7.43099C14.4984 7.206 14.3973 6.90089 14.3973 6.58276C14.3973 6.26463 14.4984 5.95952 14.6783 5.73454Z" fill="#2678CC"/>
</svg>
