<svg width="20" height="20" viewBox="0 0 20 20" fill="none" xmlns="http://www.w3.org/2000/svg">
<path d="M4.16667 9.16667H7.5C8.41667 9.16667 9.16667 8.41667 9.16667 7.5V4.16667C9.16667 3.25 8.41667 2.5 7.5 2.5H4.16667C3.25 2.5 2.5 3.25 2.5 4.16667V7.5C2.5 8.41667 3.25 9.16667 4.16667 9.16667ZM4.16667 4.16667H7.5V7.5H4.16667V4.16667Z" fill="#2678CC"/>
<path d="M4.16667 17.4999H7.5C8.41667 17.4999 9.16667 16.7499 9.16667 15.8333V12.4999C9.16667 11.5833 8.41667 10.8333 7.5 10.8333H4.16667C3.25 10.8333 2.5 11.5833 2.5 12.4999V15.8333C2.5 16.7499 3.25 17.4999 4.16667 17.4999ZM4.16667 12.4999H7.5V15.8333H4.16667V12.4999Z" fill="#2678CC"/>
<path d="M10.8334 4.16667V7.5C10.8334 8.41667 11.5834 9.16667 12.5001 9.16667H15.8334C16.7501 9.16667 17.5001 8.41667 17.5001 7.5V4.16667C17.5001 3.25 16.7501 2.5 15.8334 2.5H12.5001C11.5834 2.5 10.8334 3.25 10.8334 4.16667ZM15.8334 7.5H12.5001V4.16667H15.8334V7.5Z" fill="#2678CC"/>
<path d="M17.5001 17.0833V16.2499C17.5001 16.0166 17.3167 15.8333 17.0834 15.8333H16.2501C16.0167 15.8333 15.8334 16.0166 15.8334 16.2499V17.0833C15.8334 17.3166 16.0167 17.4999 16.2501 17.4999H17.0834C17.3167 17.4999 17.5001 17.3166 17.5001 17.0833Z" fill="#2678CC"/>
<path d="M10.8334 11.2499V12.0833C10.8334 12.3166 11.0167 12.4999 11.2501 12.4999H12.0834C12.3167 12.4999 12.5001 12.3166 12.5001 12.0833V11.2499C12.5001 11.0166 12.3167 10.8333 12.0834 10.8333H11.2501C11.0167 10.8333 10.8334 11.0166 10.8334 11.2499Z" fill="#2678CC"/>
<path d="M13.75 12.5H12.9167C12.6833 12.5 12.5 12.6833 12.5 12.9167V13.75C12.5 13.9833 12.6833 14.1667 12.9167 14.1667H13.75C13.9833 14.1667 14.1667 13.9833 14.1667 13.75V12.9167C14.1667 12.6833 13.9833 12.5 13.75 12.5Z" fill="#2678CC"/>
<path d="M10.8334 14.5834V15.4167C10.8334 15.6501 11.0167 15.8334 11.2501 15.8334H12.0834C12.3167 15.8334 12.5001 15.6501 12.5001 15.4167V14.5834C12.5001 14.3501 12.3167 14.1667 12.0834 14.1667H11.2501C11.0167 14.1667 10.8334 14.3501 10.8334 14.5834Z" fill="#2678CC"/>
<path d="M12.9167 17.4999H13.75C13.9833 17.4999 14.1667 17.3166 14.1667 17.0833V16.2499C14.1667 16.0166 13.9833 15.8333 13.75 15.8333H12.9167C12.6833 15.8333 12.5 16.0166 12.5 16.2499V17.0833C12.5 17.3166 12.6833 17.4999 12.9167 17.4999Z" fill="#2678CC"/>
<path d="M14.5833 15.8334H15.4166C15.6499 15.8334 15.8333 15.6501 15.8333 15.4167V14.5834C15.8333 14.3501 15.6499 14.1667 15.4166 14.1667H14.5833C14.3499 14.1667 14.1666 14.3501 14.1666 14.5834V15.4167C14.1666 15.6501 14.3499 15.8334 14.5833 15.8334Z" fill="#2678CC"/>
<path d="M15.4166 10.8333H14.5833C14.3499 10.8333 14.1666 11.0166 14.1666 11.2499V12.0833C14.1666 12.3166 14.3499 12.4999 14.5833 12.4999H15.4166C15.6499 12.4999 15.8333 12.3166 15.8333 12.0833V11.2499C15.8333 11.0166 15.6499 10.8333 15.4166 10.8333Z" fill="#2678CC"/>
<path d="M16.2501 14.1667H17.0834C17.3167 14.1667 17.5001 13.9833 17.5001 13.75V12.9167C17.5001 12.6833 17.3167 12.5 17.0834 12.5H16.2501C16.0167 12.5 15.8334 12.6833 15.8334 12.9167V13.75C15.8334 13.9833 16.0167 14.1667 16.2501 14.1667Z" fill="#2678CC"/>
</svg>
