<svg width="22" height="23" viewBox="0 0 22 23" fill="none" xmlns="http://www.w3.org/2000/svg">
<path d="M11.3793 3.14566V2.00776C11.3793 1.87901 11.389 1.75241 11.4069 1.62842H11.3793C10.961 1.62842 10.6207 1.96879 10.6207 2.38697C10.6206 2.80528 10.9609 3.14565 11.3793 3.14565V3.14566Z" fill="#D2B247"/>
<path d="M2.27576 5.42139H6.06878V6.17994H2.27576V5.42139Z" fill="#D2B247"/>
<path d="M12.882 6.13397C13.1301 6.06998 13.3577 5.94061 13.5437 5.75462L14.0341 5.26434L14.7927 6.0229L15.5512 5.26434L16.0417 5.75478C16.2277 5.94077 16.4552 6.07013 16.7034 6.13412C16.7474 5.47869 16.8934 4.83803 17.1389 4.2242L17.4478 3.4517V2.00765C17.4478 0.961843 16.5971 0.111084 15.5513 0.111084H14.034C12.9882 0.111084 12.1375 0.961843 12.1375 2.00765V3.45185L12.4464 4.22404C12.692 4.83787 12.838 5.47857 12.882 6.13397H12.882Z" fill="#D2B247"/>
<path d="M18.2067 3.14565C18.625 3.14565 18.9653 2.80528 18.9653 2.3871C18.9653 1.96879 18.6249 1.62854 18.2067 1.62854H18.1791C18.1969 1.75253 18.2067 1.87898 18.2067 2.00789V3.14565Z" fill="#D2B247"/>
<path d="M1.13792 7.69718H7.20668C7.41585 7.69718 7.58603 7.527 7.58603 7.31784L7.58588 4.28352C7.58588 4.07436 7.41569 3.90417 7.20653 3.90417H1.13777C0.928606 3.90417 0.758423 4.07436 0.758423 4.28352V7.31799C0.758423 7.52716 0.928606 7.69719 1.13777 7.69719L1.13792 7.69718ZM1.51727 4.66287H6.82743V6.93866H1.51727V4.66287Z" fill="#D2B247"/>
<path d="M0 20.5936V22.1108H9.16365C9.12483 21.9973 9.10334 21.8756 9.10334 21.749C9.10334 21.3735 9.28995 21.025 9.60238 20.8168L9.93692 20.5938L0 20.5936Z" fill="#D2B247"/>
<path d="M19.5624 21.4478L19.0313 21.0936C18.7675 20.9176 18.5879 20.6372 18.5385 20.3241L17.6541 14.7233C17.3104 15.0692 16.8347 15.2836 16.3098 15.2836C16.1344 15.2836 15.965 15.2588 15.8037 15.2142L17.237 21.5206C17.316 21.8684 17.6202 22.1111 17.9768 22.1111H19.3618C19.5613 22.1111 19.7236 21.9488 19.7236 21.7493C19.7236 21.6279 19.6633 21.5153 19.5624 21.4479L19.5624 21.4478Z" fill="#D2B247"/>
<path d="M11.9312 14.7233L11.0468 20.3242C10.9974 20.6372 10.8179 20.9176 10.5541 21.0934L10.0228 21.4476C9.92185 21.5148 9.86169 21.6275 9.86169 21.7487C9.86169 21.9482 10.0241 22.1107 10.2235 22.1107H11.6085C11.965 22.1107 12.2693 21.868 12.3483 21.5202L13.7816 15.2138C13.6201 15.2586 13.4507 15.2833 13.2753 15.2833C12.7505 15.2833 12.2749 15.0689 11.9312 14.7231L11.9312 14.7233Z" fill="#D2B247"/>
<path d="M21.6187 11.439L20.9715 11.0075L18.9256 8.08479C18.5589 7.56072 18.015 7.18677 17.3944 7.03159L17.0175 6.93737C16.468 6.92494 15.9518 6.71348 15.5525 6.33643L14.793 7.09573L14.0337 6.33643C13.6344 6.71347 13.1182 6.92492 12.5686 6.93737L12.1917 7.03159C11.5712 7.18674 11.0273 7.56072 10.6605 8.08479L8.61464 11.0075L7.96749 11.439C7.72887 11.5982 7.5863 11.8644 7.5863 12.1514C7.58615 12.6234 7.97025 13.0075 8.44229 13.0075C8.88055 13.0075 9.26083 12.7106 9.36718 12.2855L9.5234 11.6603L12.8965 8.76902V11.1321C12.8965 11.425 12.8273 11.7183 12.6963 11.9803L12.2675 12.8379C12.1827 13.0074 12.1378 13.1972 12.1378 13.3867C12.1378 14.0142 12.6484 14.5246 13.2757 14.5246C13.9032 14.5246 14.4136 14.0141 14.4136 13.3867V13.0074H15.1722V13.3867C15.1722 14.0142 15.6827 14.5246 16.3101 14.5246C16.9376 14.5246 17.448 14.0141 17.448 13.3867C17.448 13.197 17.4032 13.0074 17.3185 12.8378L16.8897 11.9801C16.7588 11.7183 16.6896 11.425 16.6896 11.1321V8.76902L20.0627 11.6602L20.219 12.2854C20.3253 12.7104 20.7056 13.0074 21.1438 13.0074C21.6157 13.0075 21.9998 12.6234 21.9998 12.1514C21.9998 11.8646 21.8573 11.5982 21.6186 11.439H21.6187Z" fill="#D2B247"/>
<path d="M4.55164 8.45569H3.79297V13.2296L4.55164 12.4711V8.45569Z" fill="#D2B247"/>
<path d="M3.79297 19.8351H4.55164V13.5439L3.79297 14.3026V19.8351Z" fill="#D2B247"/>
</svg>
